<?xml version="1.0" standalone="no"?>
<!DOCTYPE svg PUBLIC "-//W3C//DTD SVG 20010904//EN"
 "http://www.w3.org/TR/2001/REC-SVG-20010904/DTD/svg10.dtd">
<svg version="1.0" xmlns="http://www.w3.org/2000/svg"
 width="512.000000pt" height="512.000000pt" viewBox="0 0 512.000000 512.000000"
 preserveAspectRatio="xMidYMid meet">
<metadata>
Created by potrace 1.14, written by Peter Selinger 2001-2017
</metadata>
<g transform="translate(0.000000,512.000000) scale(0.100000,-0.100000)"
fill="#000000" stroke="none">
<path d="M2660 4939 c-50 -9 -82 -24 -116 -52 -33 -28 -59 -77 -204 -391 -15
-33 -49 -106 -75 -161 -26 -55 -63 -134 -82 -175 -19 -41 -52 -111 -73 -155
-77 -166 -154 -199 -341 -150 -56 15 -110 29 -118 31 -31 7 -136 35 -151 39
-18 5 -215 57 -415 110 -77 20 -160 42 -185 49 -25 7 -56 12 -70 10 -14 -2
-37 -6 -52 -8 -37 -6 -89 -39 -115 -73 -42 -58 -585 -1152 -590 -1191 -6 -46
4 -69 93 -204 35 -53 64 -101 64 -107 0 -5 3 -11 8 -13 10 -4 52 -65 52 -75 0
-17 64 -85 89 -95 25 -9 269 -85 301 -93 8 -2 53 -16 100 -30 47 -15 128 -40
180 -55 52 -16 129 -39 171 -52 l76 -23 -25 -55 c-14 -30 -45 -98 -70 -150
-24 -52 -57 -122 -72 -155 -15 -33 -83 -177 -149 -319 -130 -277 -141 -316
-112 -379 29 -63 235 -354 266 -375 17 -12 311 -114 655 -227 344 -114 632
-210 640 -214 24 -13 90 -3 137 20 59 29 88 68 140 190 24 57 48 113 53 124 5
11 68 162 140 335 72 173 137 329 144 345 8 17 24 55 37 85 32 77 54 104 109
134 80 44 89 42 535 -94 33 -10 128 -39 210 -63 83 -25 224 -68 315 -95 91
-28 181 -52 200 -54 61 -4 115 12 152 45 49 44 60 64 112 202 74 198 136 359
145 380 5 11 14 36 21 55 7 19 18 49 25 65 6 17 18 46 25 65 6 19 16 44 21 55
4 11 24 61 43 110 18 50 57 150 85 223 59 155 61 170 36 302 -2 14 -7 45 -11
70 -4 25 -8 54 -10 65 -1 11 -7 50 -12 86 -21 139 -50 163 -278 224 -93 25
-176 48 -184 50 -18 4 -317 82 -500 131 -74 20 -139 37 -145 38 -57 12 -63 -9
91 356 197 469 182 414 155 546 -47 233 -74 350 -87 376 -25 50 -86 76 -254
112 -14 3 -54 13 -90 21 -109 27 -144 35 -170 41 -14 2 -33 7 -42 10 -9 3 -25
7 -35 9 -10 2 -76 18 -148 35 -71 17 -141 34 -154 36 -12 3 -96 23 -185 45
-88 22 -172 42 -186 44 -14 3 -38 8 -55 13 -16 5 -46 5 -65 1z"/>
</g>
</svg>
